<svg viewBox="0 0 32 32" fill="#dd3e3e" xmlns="http://www.w3.org/2000/svg"><path d="M30.48 8.55l-.11.16a.57.57 0 11-.94-.65l.44-.66c-.23-.4-.48-.78-.74-1.16a188.94 188.94 0 01-22.3 22.3c.38.26.77.51 1.17.74l.65-.45a.57.57 0 01.66.94l-.17.12A16.01 16.01 0 0030.47 8.55zM12.1 27.75l-.92.68a.57.57 0 01-.68-.92l.91-.68a.57.57 0 11.7.91zm2.71-2.15l-.9.72a.57.57 0 11-.7-.89l.87-.72a.57.57 0 01.73.89zm2.62-2.26l-.86.77a.57.57 0 01-.76-.87c.29-.24.57-.5.85-.75a.57.57 0 11.77.85zm2.52-2.36l-.83.8a.57.57 0 01-.79-.83l.82-.79a.57.57 0 01.8.82zm2.43-2.46l-.8.83a.57.57 0 01-.82-.8l.79-.81a.57.57 0 11.82.78zm2.32-2.55l-.76.86a.57.57 0 01-.85-.76 75 75 0 00.75-.85.57.57 0 01.97.19c.07.2.03.4-.11.56zm2.22-2.65l-.73.9a.57.57 0 11-.88-.73l.72-.88a.57.57 0 01.89.71zm2.1-2.73l-.68.92a.57.57 0 11-.91-.7l.68-.9a.57.57 0 01.92.68zm-3.8-8.29c-.38-.26-.77-.52-1.17-.75l-.66.45a.57.57 0 01-.66-.94l.17-.11A16.01 16.01 0 001.57 22.29l.1-.16a.57.57 0 01.95.65l-.45.66c.23.4.48.79.75 1.17a189.42 189.42 0 0122.3-22.3zm-5.28.8l.92-.7a.57.57 0 11.68.92l-.91.68a.57.57 0 11-.7-.9zm-2.71 2.14c.3-.25.6-.5.9-.73a.57.57 0 11.7.89l-.87.72a.57.57 0 11-.73-.88zM14.6 7.5l.87-.76a.57.57 0 01.75.86l-.85.75a.57.57 0 11-.77-.85zm-10 12.53l-.67.9a.57.57 0 11-.92-.67l.68-.93a.57.57 0 11.92.7zm2.12-2.67l-.72.88a.57.57 0 01-.89-.72l.73-.9a.57.57 0 11.88.74zm2.23-2.58l-.76.85a.57.57 0 01-.97-.2.57.57 0 01.11-.56l.76-.86a.57.57 0 01.86.77zm2.32-2.5l-.78.83a.57.57 0 01-.97-.23c-.06-.2 0-.41.14-.56l.8-.83a.57.57 0 01.81.8zm1.21-1.44a.57.57 0 01-.4-.98l.83-.8a.57.57 0 01.79.83l-.82.8c-.1.1-.25.15-.4.15zM28.42 5.3c-.22-.27-.45-.53-.69-.78L5.11 27.14c.25.24.52.47.78.69A187.78 187.78 0 0028.42 5.3zm-2.28-2.28A188.02 188.02 0 003.61 25.55l.69.78L26.92 3.7a16.3 16.3 0 00-.78-.7z"/></svg>