<svg width="50" height="50" viewBox="0 0 50 50" fill="none" xmlns="http://www.w3.org/2000/svg">
    <path fill="#FF6B00" d="M0 0h50v50H0z"/>
    <path d="M18.85 26.654a5.109 5.109 0 0 1-5.103-5.103V7.532h3.961v14.02a1.141 1.141 0 0 0 1.141 1.137h5.36l-.962 3.965h-4.398zM24.894 26.654l.962-3.965h5.234a1.141 1.141 0 0 0 1.14-1.138v-1.538a1.14 1.14 0 0 0-1.06-1.138l-2.923-.25a5.128 5.128 0 0 1-4.702-5.086v-.962a5.11 5.11 0 0 1 5.102-5.087h6.61l-.962 3.965h-5.648a1.138 1.138 0 0 0-1.137 1.138v.962a1.147 1.147 0 0 0 1.048 1.137l.426.036 2.487.211a5.128 5.128 0 0 1 4.721 5.09v1.538a5.11 5.11 0 0 1-5.102 5.087h-6.196z" fill="#111"/>
    <path d="M25.227 42.51a3.378 3.378 0 0 1-3.375-3.372v-2.955a3.379 3.379 0 0 1 3.375-3.372h1.898a3.376 3.376 0 0 1 3.372 3.372v2.404H24.47v.55a.756.756 0 0 0 .756.754h5.193l-1.205 2.619h-3.988zm0-7.372a.757.757 0 0 0-.756.76v.878h3.414v-.879a.753.753 0 0 0-.754-.753l-1.904-.006zM20.192 35.724a3.324 3.324 0 0 0 .532-1.807v-.67a3.378 3.378 0 0 0-3.365-3.375H12.5V42.51h5.253a3.375 3.375 0 0 0 3.372-3.372v-1.096a3.359 3.359 0 0 0-.933-2.318zm-2.84-3.234a.757.757 0 0 1 .754.757v.67a.753.753 0 0 1-.753.753h-2.244v-2.18h2.244zm1.148 6.648a.753.753 0 0 1-.753.753h-2.644V37.29h2.65a.753.753 0 0 1 .753.753l-.006 1.096zM34.141 32.808v-2.936h-2.618v9.266a3.374 3.374 0 0 0 3.371 3.372h2.622V39.89h-2.622a.753.753 0 0 1-.753-.753v-4h2.718l.564-2.33h-3.282z" fill="#FDFDFD"/>
</svg>
