<!-- Generated by IcoMoon.io -->
<svg version="1.1" xmlns="http://www.w3.org/2000/svg" width="83" height="32" viewBox="0 0 83 32">
<title>pen</title>
<path fill="#aaa" d="M80 0c1.473 0 2.667 1.194 2.667 2.667v0 26.667c0 1.473-1.194 2.667-2.667 2.667v0h-77.333c-1.473 0-2.667-1.194-2.667-2.667v0-26.667c0-1.473 1.194-2.667 2.667-2.667v0h77.333zM14.501 7.091h-6.821v16.909h3.024v-5.544h3.669c3.421 0 5.813-2.293 5.813-5.648 0-3.411-2.312-5.717-5.685-5.717zM34.928 7.091h-10.949v16.909h10.944v-2.613h-7.92v-4.733h7.488v-2.461h-7.488v-4.488h7.92v-2.613zM41.771 7.091h-2.627v16.909h2.92v-11.507h0.197l8.299 11.507h2.613v-16.909h-2.907v11.493h-0.2l-8.296-11.493zM74.528 8l-9.328 9.352-4.616-4.645-1.917 2.003 6.533 6.624 11.245-11.317-1.92-2.016zM13.704 9.621c2.179 0 3.411 1.112 3.411 3.187 0 2.016-1.267 3.141-3.421 3.141h-2.989v-6.328z"></path>
</svg>
