<svg fill="#555" viewBox="0 0 32 32" xmlns="http://www.w3.org/2000/svg"><path d="M18.35 25.58V22.2c0-.19-.07-.31-.19-.44s-.25-.19-.44-.19h-3.38c-.19 0-.31.07-.44.2s-.19.24-.19.43v3.38c0 .19.07.31.2.44a.9.9 0 00.43.12h3.38c.19 0 .32-.06.44-.12a.57.57 0 00.19-.44zm-.06-6.7l.3-8.2c0-.13-.05-.26-.18-.38s-.25-.19-.44-.19H14.1c-.19 0-.31.06-.44.19s-.19.25-.19.38l.32 8.2c0 .13.06.19.19.31.06.07.25.13.37.13h3.32c.19 0 .31-.07.44-.13.12-.12.19-.19.19-.31zm-.25-16.72l13.7 25.17c.45.76.45 1.5 0 2.26-.18.37-.5.62-.8.88a2.7 2.7 0 01-1.2.25H2.32a2.7 2.7 0 01-1.2-.25c-.3-.25-.62-.5-.8-.88a2.1 2.1 0 010-2.26l13.7-25.17c.2-.38.5-.63.82-.88.38-.18.75-.31 1.19-.31s.81.13 1.19.31c.31.25.63.5.81.88z"/></svg>