<svg xmlns="http://www.w3.org/2000/svg" width="32" height="12"><path fill="#AAA" fill-rule="evenodd" d="M1 0h30a1 1 0 011 1v10a1 1 0 01-1 1H1a1 1 0 01-1-1V1a1 1 0 011-1zm5.56 9h1.22L5.52 2.66H4.25L2 9h1.15l.54-1.62h2.34L6.56 9zM4.83 3.87h.07l.86 2.61h-1.8l.87-2.61zm9.4 2.59v-.8H11.6v.9h1.53v.12c-.03.88-.68 1.47-1.65 1.47-1.13 0-1.84-.89-1.84-2.33 0-1.43.7-2.3 1.8-2.3.82 0 1.38.4 1.61 1.11h1.13c-.2-1.3-1.27-2.13-2.74-2.13-1.8 0-2.96 1.3-2.96 3.33 0 2.05 1.14 3.33 2.98 3.33 1.7 0 2.77-1.05 2.77-2.7zm6.98 0v-.8h-2.63v.9h1.52v.12c-.02.88-.68 1.47-1.65 1.47-1.13 0-1.83-.89-1.83-2.33 0-1.43.69-2.3 1.8-2.3.81 0 1.38.4 1.6 1.11h1.14c-.2-1.3-1.28-2.13-2.74-2.13-1.8 0-2.96 1.3-2.96 3.33 0 2.05 1.14 3.33 2.98 3.33 1.69 0 2.77-1.05 2.77-2.7zM25.45 8l4.22-4.24-.72-.76-3.5 3.5-1.73-1.74-.72.76L25.45 8z"/></svg>