<svg width="20" height="20" viewBox="0 0 20 20" fill="none" xmlns="http://www.w3.org/2000/svg">
    <path fill-rule="evenodd" clip-rule="evenodd" d="M11.029 3.172a2 2 0 0 1 .686.686l5.468 9.113A2 2 0 0 1 15.468 16H4.532a2 2 0 0 1-1.715-3.029l5.468-9.113a2 2 0 0 1 2.744-.686zm-1.82 1.104-.066.097-5.468 9.113a1 1 0 0 0 .74 1.507l.117.007h10.936a1 1 0 0 0 .911-1.411l-.054-.104-5.467-9.112a.999.999 0 0 0-.242-.274l-.101-.07a1 1 0 0 0-1.307.247zM10 12c.55 0 1 .45 1 1s-.45 1-1 1-1-.45-1-1 .45-1 1-1zm0-6a.75.75 0 0 1 .75.75v3.5l-.007.102a.75.75 0 0 1-1.493-.102v-3.5l.007-.102A.75.75 0 0 1 10 6z" fill="#DF2357"/>
</svg>